<svg width="405" height="63" viewBox="0 0 405 63" fill="none" xmlns="http://www.w3.org/2000/svg">
<path d="M3.86503 62.3854C1.93939 62.3854 0.976562 61.4225 0.976562 59.4969V16.6512C0.976562 14.7256 1.93939 13.7628 3.86503 13.7628C5.79068 13.7628 6.75351 14.7256 6.75351 16.6512V17.5109C7.99142 16.273 9.51589 15.3445 11.3269 14.7256C13.1609 14.0837 15.2126 13.7628 17.4821 13.7628H20.0955C24.6804 13.7628 28.0732 14.8631 30.2739 17.0639C32.4747 19.2646 33.575 22.6574 33.575 27.2423V35.1512C33.575 39.7132 32.4747 43.106 30.2739 45.3296C28.0732 47.5304 24.6804 48.6307 20.0955 48.6307H6.75351V59.4969C6.75351 61.4225 5.79068 62.3854 3.86503 62.3854ZM6.75351 42.8538H20.0955C23.0986 42.8538 25.1274 42.3151 26.1819 41.2376C27.2594 40.1602 27.7981 38.1314 27.7981 35.1512V27.2423C27.7981 24.2392 27.2594 22.2104 26.1819 21.1559C25.1274 20.0784 23.0986 19.5397 20.0955 19.5397H17.4821C14.6166 19.5397 12.1407 19.8836 10.0546 20.5713C7.9685 21.259 6.86813 22.3479 6.75351 23.838V42.8538Z" fill="#10002B"/>
<path d="M58.0722 48.6307C53.5103 48.6307 50.1175 47.5304 47.8938 45.3296C45.6931 43.1289 44.5927 39.759 44.5927 35.22V27.2423C44.5927 22.6345 45.6931 19.2417 47.8938 17.0639C50.1175 14.8631 53.5103 13.7628 58.0722 13.7628H63.7116C68.2965 13.7628 71.6893 14.8631 73.8901 17.0639C76.0908 19.2646 77.1912 22.6574 77.1912 27.2423V35.1512C77.1912 39.7132 76.0908 43.106 73.8901 45.3296C71.6893 47.5304 68.2965 48.6307 63.7116 48.6307H58.0722ZM50.3696 35.22C50.3696 38.1772 50.9084 40.1946 51.9858 41.272C53.0633 42.3265 55.0921 42.8538 58.0722 42.8538H63.7116C66.7147 42.8538 68.7435 42.3151 69.7981 41.2376C70.8755 40.1602 71.4142 38.1314 71.4142 35.1512V27.2423C71.4142 24.2392 70.8755 22.2104 69.7981 21.1559C68.7435 20.0784 66.7147 19.5397 63.7116 19.5397H58.0722C56.0778 19.5397 54.519 19.7689 53.3957 20.2274C52.2953 20.663 51.5159 21.4424 51.0574 22.5657C50.5989 23.6661 50.3696 25.2249 50.3696 27.2423V35.22Z" fill="#10002B"/>
<path d="M118.165 13.7628C120.091 13.7628 121.054 14.7256 121.054 16.6512V45.7423C121.054 47.6679 120.091 48.6307 118.165 48.6307C116.24 48.6307 115.277 47.6679 115.277 45.7423V44.6075C112.847 47.2897 109.271 48.6307 104.548 48.6307H102.623C98.0608 48.6307 94.668 47.5304 92.4443 45.3296C90.2436 43.106 89.1432 39.7132 89.1432 35.1512V16.6512C89.1432 14.7256 90.106 13.7628 92.0317 13.7628C93.9573 13.7628 94.9201 14.7256 94.9201 16.6512V35.1512C94.9201 38.1314 95.4588 40.1602 96.5363 41.2376C97.6367 42.3151 99.6655 42.8538 102.623 42.8538H104.548C107.299 42.8538 109.695 42.5329 111.735 41.891C113.798 41.2491 114.979 40.2633 115.277 38.9337V16.6512C115.277 14.7256 116.24 13.7628 118.165 13.7628Z" fill="#10002B"/>
<path d="M138.255 48.6307C136.329 48.6307 135.366 47.6679 135.366 45.7423V16.6512C135.366 14.7256 136.329 13.7628 138.255 13.7628C140.18 13.7628 141.143 14.7256 141.143 16.6512V17.786C143.573 15.1038 147.149 13.7628 151.872 13.7628H153.797C158.382 13.7628 161.775 14.8631 163.976 17.0639C166.177 19.2646 167.277 22.6574 167.277 27.2423V45.7423C167.277 47.6679 166.314 48.6307 164.389 48.6307C162.463 48.6307 161.5 47.6679 161.5 45.7423V27.2423C161.5 24.2392 160.95 22.2104 159.849 21.1559C158.772 20.0784 156.755 19.5397 153.797 19.5397H151.872C149.121 19.5397 146.725 19.8606 144.685 20.5025C142.645 21.1215 141.464 22.1072 141.143 23.4598V45.7423C141.143 47.6679 140.18 48.6307 138.255 48.6307Z" fill="#10002B"/>
<path d="M192.731 48.6307C188.169 48.6307 184.776 47.5304 182.552 45.3296C180.351 43.106 179.251 39.7132 179.251 35.1512V27.2423C179.251 22.6574 180.351 19.2646 182.552 17.0639C184.776 14.8631 188.169 13.7628 192.731 13.7628H206.073V3.10292C206.073 1.17727 207.035 0.214447 208.961 0.214447C210.887 0.214447 211.849 1.17727 211.849 3.10292V45.7423C211.849 47.6679 210.887 48.6307 208.961 48.6307C207.035 48.6307 206.073 47.6679 206.073 45.7423V45.2609C204.995 46.3612 203.585 47.198 201.843 47.7711C200.101 48.3442 197.934 48.6307 195.344 48.6307H192.731ZM192.731 42.8538H195.344C198.37 42.8538 200.915 42.4641 202.978 41.6847C205.041 40.9052 206.073 39.7132 206.073 38.1084V19.5397H192.731C189.75 19.5397 187.722 20.0899 186.644 21.1903C185.567 22.2677 185.028 24.285 185.028 27.2423V35.1512C185.028 38.1314 185.567 40.1602 186.644 41.2376C187.745 42.3151 189.773 42.8538 192.731 42.8538Z" fill="#10002B"/>
<path d="M233.681 48.6307C230.769 48.6307 228.465 48.0347 226.769 46.8426C225.073 45.6276 223.984 43.8166 223.502 41.4096C223.342 40.4467 223.525 39.6902 224.052 39.14C224.603 38.5899 225.359 38.3148 226.322 38.3148C227.262 38.3148 227.938 38.5555 228.351 39.0369C228.786 39.4954 229.142 40.1946 229.417 41.1345C229.692 41.8222 230.15 42.2807 230.792 42.5099C231.457 42.7392 232.42 42.8538 233.681 42.8538H244.959C246.748 42.8538 247.951 42.5672 248.57 41.9941C249.189 41.3981 249.499 40.1716 249.499 38.3148C249.499 36.4808 249.189 35.2658 248.57 34.6698C247.951 34.0738 246.748 33.7757 244.959 33.7757H233.887C230.586 33.7757 228.099 32.939 226.425 31.2655C224.752 29.592 223.915 27.1047 223.915 23.8036C223.915 20.4338 224.729 17.9235 226.356 16.273C228.007 14.5995 230.517 13.7628 233.887 13.7628H244.616C250.003 13.7628 253.189 16.0323 254.175 20.5713C254.358 21.5341 254.175 22.2792 253.625 22.8064C253.075 23.3337 252.318 23.5973 251.355 23.5973C250.461 23.5973 249.797 23.3681 249.361 22.9096C248.925 22.4282 248.582 21.7634 248.329 20.9152C248.054 20.365 247.63 19.9982 247.057 19.8148C246.507 19.6314 245.693 19.5397 244.616 19.5397H233.887C232.145 19.5397 231.01 19.8033 230.483 20.3306C229.955 20.8579 229.692 22.0155 229.692 23.8036C229.692 25.4542 229.967 26.566 230.517 27.1391C231.09 27.7122 232.214 27.9988 233.887 27.9988H244.959C248.398 27.9988 250.977 28.8585 252.696 30.5778C254.416 32.2971 255.275 34.8761 255.275 38.3148C255.275 41.7763 254.416 44.3668 252.696 46.0861C250.977 47.7825 248.398 48.6307 244.959 48.6307H233.681Z" fill="#10002B"/>
<path d="M298.212 48.6307C295.072 48.562 292.734 47.7711 291.198 46.2581C289.685 44.7221 288.928 42.4068 288.928 39.312V5.02857H280.435C277.34 5.02857 275.196 5.6246 274.004 6.81667C272.812 7.98581 272.216 10.1292 272.216 13.247V46.4644C272.216 47.9086 271.494 48.6307 270.05 48.6307C268.606 48.6307 267.884 47.9086 267.884 46.4644V13.247C267.884 8.91425 268.892 5.73922 270.91 3.72188C272.95 1.70453 276.125 0.695862 280.435 0.695862H291.094C292.539 0.695862 293.261 1.41798 293.261 2.86221V39.312C293.261 41.1918 293.605 42.487 294.292 43.1977C294.98 43.8854 296.287 44.2522 298.212 44.298C298.969 44.298 299.519 44.47 299.863 44.8138C300.207 45.1577 300.379 45.7193 300.379 46.4988C300.379 47.943 299.657 48.6537 298.212 48.6307ZM265.098 19.6772C263.654 19.6772 262.932 18.9551 262.932 17.5109C262.932 16.0667 263.654 15.3445 265.098 15.3445H280.194C281.638 15.3445 282.36 16.0667 282.36 17.5109C282.36 18.9551 281.638 19.6772 280.194 19.6772H265.098Z" fill="#10002B"/>
<path d="M318.302 48.6307C314.657 48.6307 311.963 47.7596 310.221 46.0174C308.479 44.2751 307.607 41.5815 307.607 37.9365C307.607 34.2686 308.479 31.5635 310.221 29.8213C311.963 28.079 314.657 27.2079 318.302 27.2079H333.604C333.512 24.3882 332.836 22.4282 331.575 21.3278C330.337 20.2274 328.205 19.6772 325.179 19.6772H321.19C318.485 19.6772 316.491 19.9409 315.207 20.4681C313.946 20.9725 313.132 21.8551 312.765 23.1159C312.536 23.8036 312.25 24.308 311.906 24.6289C311.585 24.9269 311.092 25.0759 310.427 25.0759C309.717 25.0759 309.155 24.8811 308.742 24.4914C308.353 24.0787 308.215 23.5285 308.33 22.8408C308.765 20.2274 310.037 18.3247 312.147 17.1326C314.256 15.9406 317.27 15.3445 321.19 15.3445H325.179C329.581 15.3445 332.801 16.3761 334.842 18.4393C336.905 20.4796 337.936 23.7005 337.936 28.102V46.4644C337.936 47.9086 337.214 48.6307 335.77 48.6307C334.326 48.6307 333.604 47.9086 333.604 46.4644V43.6447C331.334 46.9687 327.517 48.6307 322.153 48.6307H318.302ZM318.302 44.298H322.153C324.216 44.298 326.05 44.0802 327.655 43.6447C329.283 43.2091 330.612 42.487 331.644 41.4783C332.698 40.4697 333.352 39.1057 333.604 37.3863V31.5406H318.302C315.849 31.5406 314.175 31.9876 313.281 32.8817C312.387 33.7757 311.94 35.4607 311.94 37.9365C311.94 40.3894 312.387 42.0629 313.281 42.957C314.175 43.851 315.849 44.298 318.302 44.298Z" fill="#10002B"/>
<path d="M364.361 48.6307C360.029 48.6307 356.854 47.6221 354.836 45.6047C352.819 43.5874 351.81 40.4353 351.81 36.1484V19.6772H347.959C346.515 19.6772 345.793 18.9551 345.793 17.5109C345.793 16.0667 346.515 15.3445 347.959 15.3445H351.81V8.74232C351.81 7.29808 352.532 6.57597 353.977 6.57597C355.421 6.57597 356.143 7.29808 356.143 8.74232V15.3445H364.533C365.978 15.3445 366.7 16.0667 366.7 17.5109C366.7 18.9551 365.978 19.6772 364.533 19.6772H356.143V36.1484C356.143 39.2432 356.739 41.3752 357.931 42.5443C359.123 43.7135 361.267 44.298 364.361 44.298C365.118 44.298 365.668 44.4814 366.012 44.8482C366.379 45.1921 366.562 45.7308 366.562 46.4644C366.562 47.9086 365.829 48.6307 364.361 48.6307Z" fill="#10002B"/>
<path d="M384.127 48.5964C381.285 48.5964 379.084 48.0003 377.525 46.8083C375.966 45.5933 375.003 43.7593 374.637 41.3064C374.545 40.5728 374.694 40.0112 375.084 39.6215C375.496 39.2088 376.058 39.0025 376.769 39.0025C377.479 39.0025 377.995 39.1859 378.316 39.5527C378.66 39.8965 378.901 40.4238 379.038 41.1345C379.267 42.3036 379.772 43.1174 380.551 43.5759C381.331 44.0344 382.523 44.2636 384.127 44.2636H395.406C397.446 44.2636 398.833 43.8969 399.567 43.1633C400.3 42.4297 400.667 41.0428 400.667 39.0025C400.667 36.9622 400.3 35.5753 399.567 34.8417C398.833 34.1081 397.446 33.7414 395.406 33.7414H384.299C381.204 33.7414 378.889 32.9848 377.353 31.4718C375.84 29.9588 375.084 27.6549 375.084 24.5601C375.084 21.3966 375.84 19.0698 377.353 17.5797C378.866 16.0667 381.182 15.3102 384.299 15.3102H395.062C400.335 15.3102 403.315 17.5911 404.003 22.1531C404.14 22.8637 404.003 23.4254 403.59 23.838C403.2 24.2277 402.639 24.4226 401.905 24.4226C401.217 24.4226 400.702 24.2507 400.358 23.9068C400.037 23.54 399.796 23.0242 399.636 22.3594C399.429 21.3278 398.982 20.6171 398.295 20.2274C397.607 19.8377 396.529 19.6429 395.062 19.6429H384.299C382.397 19.6429 381.101 19.9753 380.414 20.6401C379.749 21.3049 379.416 22.6116 379.416 24.5601C379.416 26.417 379.76 27.6893 380.448 28.377C381.136 29.0648 382.419 29.4086 384.299 29.4086H395.406C398.661 29.4086 401.068 30.1995 402.627 31.7813C404.209 33.3402 405 35.7472 405 39.0025C405 42.2578 404.209 44.6763 402.627 46.2581C401.068 47.8169 398.661 48.5964 395.406 48.5964H384.127Z" fill="#10002B"/>
</svg>
