<svg width="48" height="48" viewBox="0 0 48 48" fill="none" xmlns="http://www.w3.org/2000/svg">
<path d="M29.5625 27C34.1875 27 38 30.8125 38 35.4375V37C38 38.6875 36.625 40 35 40H13C11.3125 40 10 38.6875 10 37V35.4375C10 30.8125 13.75 27 18.375 27C20.1875 27 21 28 24 28C26.9375 28 27.75 27 29.5625 27ZM35 37V35.4375C35 32.4375 32.5625 30 29.5625 30C28.625 30 27.1875 31 24 31C20.75 31 19.3125 30 18.375 30C15.375 30 13 32.4375 13 35.4375V37H35ZM24 26C19 26 15 22 15 17C15 12.0625 19 8 24 8C28.9375 8 33 12.0625 33 17C33 22 28.9375 26 24 26ZM24 11C20.6875 11 18 13.75 18 17C18 20.3125 20.6875 23 24 23C27.25 23 30 20.3125 30 17C30 13.75 27.25 11 24 11Z" fill="black" fill-opacity="0.24"/>
</svg>
